<?xml version="1.0" encoding="utf-8"?>
<!-- Generator: Adobe Illustrator 19.2.0, SVG Export Plug-In . SVG Version: 6.00 Build 0)  -->
<svg version="1.0" id="horizontal_2" xmlns="http://www.w3.org/2000/svg" xmlns:xlink="http://www.w3.org/1999/xlink" x="0px"
	 y="0px" viewBox="0 0 1024 768" enable-background="new 0 0 1024 768" xml:space="preserve">
<title>POSM_logo-build</title>
<g>
	<path fill="#231F20" d="M395.4,593.6c-1.4-3.1-3.5-5.9-6-8.2c-2.3-2-5-3.6-7.9-4.6c-2.5-0.9-5.2-1.4-7.9-1.4h-36.1v74.5h15.3v-18.7
		h19.4c0.4,0,1.2,0,2.4-0.1c1.4-0.1,2.9-0.4,4.3-0.8c1.8-0.5,3.6-1.3,5.3-2.1c2-1.1,3.9-2.4,5.5-4.1c5.5-5.3,8.2-12.7,8.2-22.2
		C397.9,601,397.1,596.9,395.4,593.6z M381.3,613.4c-0.6,1.6-1.5,3-2.7,4.2c-0.9,0.9-2,1.6-3.3,1.9c-0.9,0.2-1.8,0.4-2.7,0.4h-19.7
		v-25.1h20.7c0.9,0,1.9,0.2,2.8,0.5c1.1,0.3,2.1,0.9,2.9,1.6c1,0.9,1.8,2.1,2.3,3.3c0.6,1.5,0.9,3.4,0.9,5.7
		C382.5,609.1,382.1,611.6,381.3,613.4L381.3,613.4z"/>
	<path fill="#231F20" d="M423.6,650.2l-13.2,13.2l-7.4-7.4l13.2-13.2C418.3,645.6,420.8,648.1,423.6,650.2z"/>
	<path fill="#231F20" d="M483.9,602.1c-1.9-4.4-4.6-8.4-8-11.8c-3.4-3.4-7.4-6.1-11.7-8c-9.2-3.9-19.7-3.9-28.9,0
		c-4.4,1.9-8.4,4.6-11.7,8c-3.4,3.4-6.1,7.4-8,11.8c-3.9,9.2-3.9,19.7,0,28.9c1.9,4.4,4.6,8.4,8,11.8c3.4,3.4,7.4,6.1,11.7,8
		c9.2,3.9,19.7,3.9,28.9,0c4.4-1.9,8.4-4.6,11.7-8c3.4-3.4,6.1-7.4,8-11.8C487.8,621.8,487.8,611.3,483.9,602.1z M469.8,625.1
		c-2.3,5.2-6.4,9.4-11.7,11.7c-2.7,1.2-5.5,1.7-8.4,1.7c-2.9,0-5.8-0.6-8.5-1.7c-2.6-1.1-4.9-2.7-6.9-4.7c-2-2-3.5-4.4-4.7-6.9
		c-2.3-5.4-2.3-11.6,0-17c1.1-2.6,2.7-4.9,4.7-6.9c2-2,4.3-3.6,6.9-4.7c2.7-1.2,5.6-1.7,8.5-1.7c2.9,0,5.8,0.6,8.4,1.7
		c5.2,2.3,9.4,6.4,11.7,11.7C472.1,613.5,472.1,619.6,469.8,625.1L469.8,625.1z"/>
	<path fill="#231F20" d="M527.2,654.6c-3.6,0-7.2-0.6-10.6-1.8c-3.2-1.1-6.1-2.8-8.8-4.9c-2.5-1.9-4.5-4.4-6-7.1
		c-1.4-2.7-2.2-5.6-2.2-8.7H515c0.1,0.8,0.4,1.5,0.9,2.1c0.7,0.9,1.5,1.7,2.4,2.3c1.2,0.8,2.4,1.4,3.8,1.9c1.6,0.5,3.3,0.8,5.1,0.8
		c3,0,5.4-0.4,7.2-1.1c1.5-0.5,2.8-1.3,4-2.3c0.9-1,1.6-2.1,2-3.4c0-0.8-0.1-1.6-0.2-2.4c-0.1-0.8-0.4-1.6-1-2.2
		c-0.9-1.1-2.6-2-4.9-2.7c-2.8-0.7-5.6-1-8.5-1c-2.3,0-4.7-0.2-6.9-0.7c-1.9-0.4-3.7-1-5.4-1.8c-1.4-0.6-2.8-1.4-4.1-2.4
		c-1-0.8-2-1.7-2.8-2.6c-1.4-1.5-2.6-3.2-3.4-5.1c-0.8-1.6-1.3-3.3-1.7-5.1c-0.3-1.4-0.5-2.8-0.6-4.2c0-1.2,0-2,0-2.6
		c0-0.8,0.1-1.5,0.2-2.3c0.2-1.2,0.5-2.4,0.9-3.5c0.5-1.4,1.1-2.8,1.8-4.1c0.9-1.6,1.9-3,3.2-4.2c4.9-5,11.8-7.4,20.6-7.4
		c8.7,0,15.4,2.5,20.3,7.6c1.6,1.6,2.9,3.5,4,5.5c0.9,1.7,1.5,3.4,2,5.3c0.4,1.4,0.6,2.8,0.7,4.2c0.1,1.2,0.1,1.9,0.1,2.1l-15.4-0.5
		v0.2c0-0.9-0.2-1.9-0.4-2.8c-0.3-1.1-0.9-2.1-1.6-2.9c-1-1-2.2-1.8-3.5-2.3c-1.6-0.6-3.6-0.9-6.1-0.9c-2-0.1-3.9,0.2-5.8,0.7
		c-1.2,0.3-2.4,0.9-3.3,1.7c-0.7,0.6-1.2,1.3-1.6,2.1c-0.2,0.6-0.4,1.2-0.4,1.8v0.7l-0.1,0.1c0,0.7,0.1,1.4,0.2,2
		c0.1,0.5,0.3,1.1,0.5,1.8c0.2,0.7,0.6,1.3,1.1,1.8c1.6,1.6,4.2,2.3,7.8,2.3c9.6,0,17,2.1,22.2,6.2s7.8,10,7.8,17.6
		c-0.1,2.4-0.6,4.9-1.6,7.1c-1.1,2.7-2.8,5.2-5,7.2c-2.3,2.2-5.2,4.1-8.9,5.6C536.8,653.9,532.4,654.6,527.2,654.6z"/>
	<polygon fill="#231F20" points="593.1,653.9 577.3,653.9 577.3,579.4 593.7,579.4 613.8,630.3 633.5,579.4 649.9,579.4 
		649.9,653.9 634.1,653.9 634.1,623.7 621.6,653.9 606,653.9 593.1,623.2 	"/>
	<path fill="#231F20" d="M656.8,139.5c-8.4-8.4-24.6-6.8-52.5,5.3c-16.5,7.2-33.3,16.4-43.6,22.3c-2.3-1.1-4.7-2.2-7-3.1
		c-38.5-16-81.9-16-120.4,0.1c-2.3,1-4.6,2-7,3.1c-10.4-6-27.1-15.2-43.6-22.3c-27.9-12.1-44.1-13.7-52.5-5.3
		c-5.8,5.8-11,19.4-5.1,76.5c3.3,31.8,8.8,65.7,11.9,83.7c-0.2,3.2-0.3,6.1-0.3,9.1c0,22.4,5.5,48.2,16.3,76.8
		c9.6,25.3,23,51.6,38.7,75.9l1.2,1.8c-3,1.4-6,2.8-8.8,4.3c-7,3.7-13.4,8.2-19.4,13.5c-7.6,6.8-8.6,18.3-2.2,26.3
		c2.5,3.1,8.4,7.7,15.3,8.9c0.6,2,1.5,3.9,2.7,5.6l0.4,0.5c2,2.6,6.1,6.1,11.1,8c0.6,2.5,1.7,4.8,3.2,6.8c2.7,3.7,9.6,9.2,17.5,9.7
		c0.3,0,0.7,0,1.1,0c4.9,0,9.7-1.9,13.2-5.3c2.8-2.6,5.9-4.9,9.3-6.9c4-2.4,8.3-4.4,12.7-6.1c16.2,13,31.1,19.6,44.5,19.6
		c13,0,27.7-6.7,43.8-19.9c4.6,1.7,9.1,3.8,13.4,6.4c3.3,2,6.4,4.3,9.3,6.9c3.5,3.4,8.3,5.3,13.2,5.3c0.4,0,0.8,0,1.1,0
		c7.8-0.5,14.7-6,17.4-9.6c1.5-2,2.6-4.4,3.2-6.8c5-2,9.1-5.5,11.1-8l0.4-0.5c1.2-1.7,2.1-3.6,2.7-5.6c6.8-1.2,12.8-5.8,15.3-8.9
		c6.4-7.9,5.5-19.5-2.2-26.2c-5.9-5.2-12.4-9.7-19.4-13.5c-3-1.7-6.2-3.2-9.6-4.7l0.9-1.4c16-24.5,29.6-50.7,39.3-75.9
		c11-28.6,16.7-54.5,16.7-76.9c0-2.9-0.1-6-0.3-9c3.1-18,8.6-51.8,11.9-83.7C667.8,159,662.6,145.3,656.8,139.5z"/>
	<line fill="none" x1="493.5" y1="472" x2="493.5" y2="431.9"/>
	<path fill="#FFFFFF" d="M618.2,502.1c-1.8,2.3-6.8,5.8-11.4,6c-0.2,0-0.4,0-0.6,0c-1.7,0-3.5-0.4-5-1.2c1.3,3.3,0.8,7.1-1.3,10
		l-0.2,0.3c-1.8,2.4-6.7,6-11.4,6.2c-0.2,0-0.4,0-0.6,0s-0.4,0-0.5,0c0.7,3,0,6.2-1.9,8.7c-1.8,2.4-6.6,6.1-11.2,6.3
		c-0.2,0-0.4,0-0.6,0c-2.8,0-5.4-1.1-7.4-3c-3.3-3.1-6.9-5.8-10.7-8c-7.4-4.4-16-7.9-25.4-10.4l0.1-2.2
		c14.4-12.2,29.8-29.8,44.2-50.2c8.7,2.6,17.1,6,25.1,10.3c6.4,3.4,12.4,7.6,17.8,12.4C621.3,491.1,621.9,497.7,618.2,502.1z"/>
	<path fill="#FFFFFF" d="M639.9,308.2c0,0,27.4-147,11-163.5c-14.9-14.9-94.5,34-94.5,34L639.9,308.2"/>
	<path fill="#231F20" d="M347,308.9c0,0-27.4-147-11-163.5c14.9-14.9,94.5,34,94.5,34L347,308.9"/>
	<path fill="#FFFFFF" d="M641.9,308.1c0,21.3-5.4,46.2-16.1,73.8c-9.5,24.6-22.8,50.3-38.5,74.3c-26,39.6-63.9,82-93,82.8
		c-0.5,0-0.9-0.4-0.9-0.8c0,0,0,0,0,0v-5.9c46.2,0,141.7-138,141.7-224.2c0-80.4-65.3-141.7-141.7-141.7v-3.6c0-1.8,1.4-3.2,3.2-3.2
		c0,0,0,0,0.1,0c37.9,0.8,74,16.1,101,42.6C626.2,230.3,641.9,267.8,641.9,308.1z"/>
	<path fill="#231F20" d="M635.2,308.8c0,68.4-60,169.3-107.9,208.2c-12.5,10.1-24.2,16.1-33.8,16.1V167.1
		C569.9,167.1,635.2,228.4,635.2,308.8z"/>
	<path fill="#FFFFFF" d="M493.5,166.4v365.9c-9.6,0-20.9-5.3-32.9-14.6c-0.5-0.4-0.9-0.7-1.4-1.1c-15.2-12.1-31.5-30.3-46.6-51.8
		c-33.1-47.1-60.8-109.6-60.8-156.7C351.8,228.1,417.1,166.4,493.5,166.4z"/>
	<path fill="#231F20" d="M611,493.6c-5-4.4-10.4-8.2-16.2-11.3c-20-10.8-46.5-16.8-74.5-16.8h-2.1v8.7h2.1
		c26.7,0,51.6,5.6,70.4,15.8c4.8,2.6,9.4,5.7,13.6,9.2c0.4,0.4,1,0.6,1.6,0.6h0.1c1.6-0.1,4.5-1.9,5.3-2.9
		C612,495.9,611.9,494.4,611,493.6z"/>
	<path fill="#231F20" d="M576.8,497.7c-19.1-10.8-44.3-16.8-71.1-16.8h-2.1v8.7h2.1c25.4,0,49.1,5.6,66.9,15.8
		c4.6,2.6,9,5.7,12.9,9.2c0.4,0.4,1,0.6,1.6,0.6h0.1c1.6-0.1,4.4-1.9,5.2-3l0,0c0.7-1,0.6-2.4-0.3-3.2
		C587.6,504.6,582.4,500.8,576.8,497.7z"/>
	<path fill="#231F20" d="M563.1,512.8c-18.1-10.9-42.1-16.9-67.6-16.9h-2.1v8.7h2.1c24,0,46.6,5.6,63.5,15.7
		c4.4,2.6,8.5,5.7,12.3,9.2c0.4,0.4,1,0.7,1.6,0.7h0.1c1.5-0.1,4.2-1.9,5-3c0.7-1,0.6-2.3-0.2-3.1
		C573.4,519.7,568.5,515.9,563.1,512.8z"/>
	<path fill="#FFFFFF" d="M376,493.6c4.9-4.4,10.4-8.2,16.2-11.3c20-10.8,46.5-16.8,74.5-16.8h2.1v8.7h-2.1
		c-26.7,0-51.6,5.6-70.4,15.8c-4.8,2.6-9.4,5.7-13.6,9.2c-0.4,0.4-1,0.6-1.6,0.6h-0.1c-1.6-0.1-4.5-1.9-5.3-2.9
		C374.9,495.9,375.1,494.4,376,493.6z"/>
	<path fill="#FFFFFF" d="M410.2,497.7c19.1-10.8,44.3-16.8,71.1-16.8h2.1v8.7h-2.1c-25.4,0-49.1,5.6-66.9,15.8
		c-4.6,2.6-9,5.7-12.9,9.2c-0.4,0.4-1,0.6-1.6,0.6h-0.1c-1.6-0.1-4.4-1.9-5.2-3l0,0c-0.7-1-0.6-2.4,0.3-3.2
		C399.4,504.6,404.6,500.8,410.2,497.7z"/>
	<path fill="#FFFFFF" d="M423.8,512.8c18.1-10.9,42.1-16.9,67.6-16.9h2.1v8.7h-2.1c-24,0-46.6,5.6-63.5,15.7
		c-4.4,2.6-8.5,5.7-12.3,9.2c-0.4,0.4-1,0.7-1.6,0.7h-0.1c-1.5-0.1-4.2-1.9-5-3c-0.7-1-0.6-2.3,0.2-3.1
		C413.5,519.7,418.5,515.9,423.8,512.8z"/>
	<path fill="#231F20" d="M634.5,236.5c-1,9-2.4,17.8-3.6,26c-0.1,0.5-0.6,0.9-1.1,0.8c-0.1,0-0.2-0.1-0.3-0.1l0,0
		c-0.2-0.1-0.3-0.3-0.4-0.5c-8-23.4-22-44.3-40.6-60.6c-0.4-0.3-0.4-0.9-0.1-1.3c0.1-0.1,0.2-0.2,0.3-0.2c5-2.7,9.1-4.9,11.3-5.9
		c21.1-10.5,32.6-13.9,38.3-14.9c0.5-0.1,1,0.2,1.1,0.7c0,0,0,0,0,0C640.3,187.3,639.7,189.8,634.5,236.5z"/>
	<path fill="#FFFFFF" d="M398.6,201.5c-18.5,16.3-32.5,37.1-40.6,60.5c-0.1,0.2-0.2,0.4-0.4,0.5l0,0c-0.4,0.3-1,0.1-1.3-0.3
		c-0.1-0.1-0.1-0.2-0.1-0.4c-1.2-8.2-2.6-17-3.6-26c-5.2-46.6-5.8-49.2-4.9-56c0.1-0.5,0.6-0.9,1.1-0.8c0,0,0,0,0,0
		c5.7,1.1,17.2,4.4,38.3,14.9c2.2,1.1,6.3,3.3,11.3,5.9c0.5,0.2,0.7,0.8,0.4,1.3C398.8,201.3,398.7,201.4,398.6,201.5z"/>
	<path fill="#231F20" d="M493.5,504.2V534h-0.1c-9.6,0-20.9-5.3-32.9-14.6C467.2,509.9,479.1,504.2,493.5,504.2L493.5,504.2
		L493.5,504.2z"/>
	<path fill="#FFFFFF" d="M527.2,517.9c-12.5,10.1-24.2,16-33.7,16.1v-29.8h0.1C507.9,504.2,520.4,508.6,527.2,517.9z"/>
	<path fill="#231F20" d="M493.5,165.7l0,172.2c0,0-1.1-0.4-1.1-0.4C482,302.8,450.5,281,410.9,281c-22.8,0-44.6,9.1-60.6,25.2
		C351.7,228.2,415.4,165.7,493.5,165.7z"/>
	<path fill="#FFFFFF" d="M636.7,306.1c-33.2-33.5-87.3-33.7-120.8-0.5c-10.8,10.7-18.6,24.1-22.4,38.8V165.4
		c34.5,0,67.9,12.4,93.9,35c19.1,16.5,33.5,37.8,41.7,61.8C633.9,276.4,636.5,291.2,636.7,306.1z"/>
	<circle fill="#231F20" cx="454.1" cy="379.7" r="16.3"/>
	<circle fill="#FFFFFF" cx="532.8" cy="379" r="16.3"/>
</g>
</svg>
